<?xml version="1.0" encoding="utf-8"?>
<!-- Generator: Adobe Illustrator 24.1.1, SVG Export Plug-In . SVG Version: 6.00 Build 0)  -->
<svg version="1.1" id="Layer_1" xmlns="http://www.w3.org/2000/svg" xmlns:xlink="http://www.w3.org/1999/xlink" x="0px" y="0px"
	 viewBox="0 0 144 80" style="enable-background:new 0 0 144 80;" xml:space="preserve">
<style type="text/css">
	.st0{fill:#00A7E1;}
	.st1{fill:#88929B;}
</style>
<path class="st0" d="M425.1-244.4L425.1-244.4L425.1-244.4L425.1-244.4c0-0.2,0-0.3-0.1-0.4l0,0c-0.1-0.1-0.2-0.2-0.3-0.3l-0.1,0
	h-0.5l0.1-0.1l-43.3-20.5l-0.5-0.2l-0.5,0.2l-43.3,20.5l0.1,0.1h-0.4h-0.1l-0.1,0l0,0c-0.1,0.1-0.2,0.2-0.3,0.3v0
	c-0.1,0.1-0.1,0.3-0.1,0.4v0l0,0l0,0l0,0v5.9c0,0.2,0.1,0.3,0.1,0.5l0,0c0.1,0.1,0.2,0.2,0.4,0.3l0,0c0.1,0,0.2,0.1,0.3,0.1h1v5.5
	c0,0.2,0.1,0.3,0.1,0.5c0.1,0.1,0.2,0.2,0.4,0.3c0.1,0,0.2,0.1,0.3,0.1h1.4v20.8h-1.4c-0.2,0-0.3,0.1-0.5,0.1
	c-0.1,0.1-0.2,0.2-0.3,0.4c0,0.1-0.1,0.2-0.1,0.3v11.4h-1c-0.2,0-0.4,0.1-0.6,0.3c-0.2,0.2-0.3,0.4-0.3,0.6v6c0,0.2,0.1,0.3,0.1,0.5
	l0,0c0.1,0.1,0.2,0.2,0.4,0.3c0.1,0,0.2,0.1,0.3,0.1h87.6c0.2,0,0.3-0.1,0.5-0.1c0.1-0.1,0.2-0.2,0.3-0.4c0-0.1,0.1-0.2,0.1-0.3v-6
	c0-0.2-0.1-0.3-0.1-0.5c-0.1-0.1-0.2-0.2-0.4-0.3c-0.1,0-0.2-0.1-0.3-0.1h-1v-11.4c0-0.2-0.1-0.3-0.1-0.5l0,0
	c-0.1-0.1-0.2-0.2-0.4-0.3c-0.1,0-0.2-0.1-0.3-0.1H421v-20.8h1.4c0.2,0,0.3-0.1,0.5-0.1c0.1-0.1,0.2-0.2,0.3-0.4l0,0
	c0-0.1,0.1-0.2,0.1-0.3v-5.5h1c0.2,0,0.3-0.1,0.5-0.1c0.1-0.1,0.2-0.2,0.3-0.4v0c0-0.1,0.1-0.2,0.1-0.3L425.1-244.4L425.1-244.4z
	 M380.3-264L380.3-264l40,18.9h-79.7L380.3-264z M339.7-232.9h-0.2v-4.6h9.8v4.6H339.7z M351-232.1v-5.5h2.2v0h17.5v0h3.2v5.5
	c0,0.2,0.1,0.3,0.1,0.5l0,0c0.1,0.1,0.2,0.2,0.4,0.3c0.1,0,0.2,0.1,0.3,0.1h1.4v20.8h-1.4c-0.2,0-0.3,0.1-0.5,0.1
	c-0.1,0.1-0.2,0.2-0.3,0.4c0,0.1-0.1,0.2-0.1,0.3v5.5h-3.4h-17.1H351v-5.5c0-0.2-0.1-0.3-0.1-0.5c-0.1-0.1-0.2-0.2-0.4-0.3
	c-0.1,0-0.2-0.1-0.3-0.1h-1.4v-20.8h1.4c0.2,0,0.3-0.1,0.5-0.1c0.1-0.1,0.2-0.2,0.3-0.4l0,0C351-231.8,351-231.9,351-232.1z
	 M387.1-231.7c0-0.1,0.1-0.2,0.1-0.3v-5.5h2.7v0h17.5v0h2.7v5.5c0,0.2,0.1,0.3,0.1,0.5c0.1,0.1,0.2,0.2,0.4,0.3
	c0.1,0,0.2,0.1,0.3,0.1h1.4v20.8h-1.4c-0.2,0-0.3,0.1-0.5,0.1c-0.1,0.1-0.2,0.2-0.3,0.4c0,0.1-0.1,0.2-0.1,0.3v5.5h-2.9H390h-2.9
	v-5.5c0-0.2-0.1-0.3-0.1-0.5v0c-0.1-0.1-0.2-0.2-0.4-0.3c-0.1,0-0.2-0.1-0.3-0.1h-1.4v-20.8h1.4c0.2,0,0.3-0.1,0.5-0.1
	C386.9-231.4,387-231.6,387.1-231.7L387.1-231.7z M385.4-208.7v4.6h-9.8v-4.4v-0.2H385.4z M377.8-210.4v-20.8h5.1h0.2v20.8H377.8z
	 M385.4-232.9h-9.6h-0.2v-4.6h9.8V-232.9z M347-231.2v20.8h-5.4v-20.8h5.1H347z M339.4-208.4v-0.2h9.8v4.6h-5.4v0h-4.4V-208.4z
	 M423.2-196.4h0.2v4.3h-85.8v-4.3h37c0.2,0,0.3-0.1,0.5-0.1c0.1-0.1,0.2-0.2,0.3-0.4c0-0.1,0.1-0.2,0.1-0.3c0-0.2-0.1-0.3-0.1-0.5
	c-0.1-0.1-0.2-0.2-0.4-0.3c-0.1,0-0.2-0.1-0.3-0.1h-35.1v-4.3h82.1v4.3h-35.1c-0.2,0-0.3,0.1-0.5,0.1c-0.1,0.1-0.2,0.2-0.3,0.4
	c0,0.1-0.1,0.2-0.1,0.3c0,0.2,0.1,0.3,0.1,0.5l0,0c0.1,0.1,0.2,0.2,0.4,0.3c0.1,0,0.2,0.1,0.3,0.1H423.2z M421.3-208.7h0.2v4.6h-8.9
	v0h-1v-4.6H421.3z M413.9-210.4v-20.8h5.4v20.8h-5.1H413.9z M421.5-232.9h-9.6h-0.2v-4.6h9.8V-232.9z M423.4-239.3h-85.6h-0.2v-4.3
	h85.8V-239.3z"/>
<path class="st0" d="M171.8-227.2l-1.8-0.6l1.6-1.1c1.7-1.2,3.1-2.7,4-4.5c1-1.8,1.5-3.9,1.5-6.1c0-2.7-0.8-5.2-2.2-7.3
	c-1.4-2.1-3.4-3.7-5.7-4.7c-1.6-0.7-3.3-1-5.1-1c-2.7,0-5.2,0.8-7.3,2.2c-2.1,1.4-3.7,3.4-4.7,5.7c-0.7,1.6-1,3.3-1,5.1
	c0,2.2,0.5,4.3,1.5,6.1c1,1.8,2.3,3.4,4,4.5l1.6,1.1l-1.8,0.6c-3,1-5.6,2.6-7.9,4.6l-0.6,0.6l-0.6-0.6c-3.2-2.7-6.9-4.8-11-6
	l-2.1-0.6l1.9-1.1c2.4-1.5,4.4-3.5,5.8-6c1.4-2.5,2.2-5.3,2.2-8.3c0-3.5-1.1-6.7-2.9-9.3c-1.8-2.7-4.4-4.8-7.3-6.1
	c-2-0.8-4.2-1.3-6.5-1.3c-3.5,0-6.7,1.1-9.3,2.9c-2.7,1.8-4.8,4.4-6.1,7.4c-0.8,2-1.3,4.2-1.3,6.5c0,3,0.8,5.9,2.2,8.3
	c1.4,2.5,3.4,4.5,5.9,6l1.9,1.1l-2.1,0.6c-4,1.2-7.7,3.3-10.9,5.9l-0.6,0.5l-0.6-0.6c-2.3-2-4.9-3.6-7.8-4.6l-1.8-0.6l1.6-1.1
	c1.7-1.2,3.1-2.7,4-4.5c1-1.8,1.5-3.9,1.5-6.1c0-2.7-0.8-5.2-2.2-7.3c-1.4-2.1-3.4-3.7-5.7-4.7c-1.6-0.7-3.3-1-5.1-1
	c-2.7,0-5.2,0.8-7.3,2.2c-2.1,1.4-3.7,3.4-4.7,5.7c-0.7,1.6-1,3.3-1,5.1c0,2.2,0.5,4.3,1.5,6.1c1,1.8,2.3,3.4,4,4.5l1.6,1.1
	l-1.8,0.6c-4.6,1.6-8.6,4.6-11.4,8.4c-2.8,3.9-4.5,8.6-4.5,13.8v0.7h29.8l-0.1,1.1c-0.2,1.3-0.3,2.6-0.3,4v1.6c0,2.5,0.7,4.8,2,6.7
	c1.3,1.9,3.1,3.4,5.2,4.3c1.4,0.6,3,0.9,4.6,0.9h37.5c2.5,0,4.8-0.7,6.7-2c1.9-1.3,3.4-3.1,4.3-5.2c0.6-1.4,0.9-3,0.9-4.6v-1.6
	c0-1.3-0.1-2.7-0.3-4l-0.1-1.1h30v-0.7c0-5.2-1.7-9.9-4.5-13.8C180.3-222.6,176.4-225.6,171.8-227.2z M157.8-230.5
	c-1.7-1.2-3.1-2.9-3.9-4.8c-0.5-1.3-0.8-2.8-0.8-4.3c0-2.3,0.7-4.4,1.9-6.2c1.2-1.8,2.9-3.2,4.9-4c1.3-0.6,2.8-0.9,4.3-0.9
	c2.3,0,4.4,0.7,6.2,1.9c1.8,1.2,3.2,2.9,4,4.9c0.6,1.3,0.9,2.8,0.9,4.3c0,2.3-0.7,4.4-1.9,6.1c-1.2,1.7-2.8,3.1-4.8,4
	c-1.3,0.6-2.7,0.9-4.2,0.9l0,0h0c-0.1,0-0.1,0-0.2,0c-0.1,0-0.1,0-0.2,0h0l0,0C161.6-228.6,159.5-229.3,157.8-230.5z M118.7-232.6
	c-2.2-1.6-4-3.8-5-6.4c-0.7-1.7-1.1-3.6-1.1-5.6c0-3.1,0.9-5.9,2.5-8.3c1.6-2.4,3.8-4.2,6.5-5.4c1.8-0.7,3.7-1.2,5.7-1.2
	c3.1,0,5.9,0.9,8.3,2.5c2.4,1.6,4.2,3.8,5.4,6.5c0.7,1.8,1.2,3.7,1.2,5.7c0,2.9-0.9,5.7-2.4,8c-1.5,2.3-3.6,4.2-6.1,5.4
	c-1.7,0.8-3.5,1.3-5.4,1.4l0,0h0c-0.3,0-0.5,0-0.8,0c-0.3,0-0.5,0-0.8,0h0l0,0C123.6-230,120.9-231,118.7-232.6z M84.5-230.5
	c-1.7-1.2-3.1-2.9-3.9-4.8c-0.5-1.3-0.9-2.8-0.9-4.3c0-2.3,0.7-4.4,1.9-6.2c1.2-1.8,2.9-3.2,4.9-4c1.3-0.6,2.8-0.9,4.3-0.9
	c2.3,0,4.4,0.7,6.2,1.9c1.8,1.2,3.2,2.9,4,4.9c0.6,1.3,0.9,2.8,0.9,4.3c0,2.3-0.7,4.4-1.9,6.1c-1.2,1.7-2.8,3.1-4.8,4
	c-1.3,0.6-2.7,0.9-4.2,0.9l0,0h0c-0.1,0-0.1,0-0.2,0c-0.1,0-0.1,0-0.2,0h0l0,0C88.4-228.6,86.3-229.3,84.5-230.5z M97.5-206.2H69.2
	l0.1-1.1c0.6-5.4,3.1-10.2,6.9-13.7c3.8-3.5,8.9-5.6,14.4-5.6l0,0h0c0,0,0.1,0,0.1,0c0,0,0.1,0,0.1,0h0l0,0c2.6,0,5.2,0.5,7.5,1.4
	c2.3,0.9,4.5,2.2,6.3,3.7l0.8,0.7l-0.7,0.7c-3.4,3.7-5.9,8.2-7.2,13.1L97.5-206.2z M156.1-197.6c0,2.1-0.6,4-1.7,5.6
	c-1.1,1.6-2.6,2.9-4.4,3.6c-1.2,0.5-2.5,0.8-3.9,0.8h-37.5c-2.1,0-4-0.6-5.6-1.7c-1.6-1.1-2.9-2.6-3.6-4.4c-0.5-1.2-0.8-2.5-0.8-3.9
	v-1.6c0-5.8,1.7-11.3,4.7-15.8c3-4.5,7.2-8.2,12.2-10.4c3.3-1.5,7-2.4,10.9-2.5l0.1,0l0.1,0c0.2,0,0.5,0,0.7,0c0.3,0,0.5,0,0.7,0
	l0.1,0l0.1,0c5.8,0.2,11.2,2.1,15.6,5.2c4.4,3.1,8,7.5,10.1,12.5c1.4,3.4,2.2,7.1,2.2,11V-197.6z M185.7-206.2H158h-0.8l-0.2-0.7
	c-1.3-4.9-3.7-9.4-7.1-13l-0.7-0.7l0.8-0.7c3.7-3.2,8.6-5.2,13.9-5.2l0,0h0c0,0,0.1,0,0.1,0c0,0,0.1,0,0.1,0h0l0,0
	c5.5,0,10.6,2.2,14.4,5.6c3.8,3.5,6.4,8.3,6.9,13.7L185.7-206.2z"/>
<g>
	<path class="st0" d="M-131.8-261.3l-0.1,0.1l-0.3,0.1l-20.2,10.2l-49.6,26.5l5.5,3.2l48.3-25.9l65.8,35.7l22.4-11L-131.8-261.3z
		 M-148.3-249.1l-0.1,0.1l-48.1,25.8l-2-1.1l46.9-25.1l19.8-10l68,36.8l-18.6,9.2L-148.3-249.1z"/>
	<path class="st0" d="M-155.2-197.3l0.6,0.3l1,0.5l23.2,11l21.8-10.9l-23.4-12.8L-155.2-197.3z M-130.5-187.4l-20.9-9.9l19.2-9.9
		l19.7,10.8L-130.5-187.4z"/>
	<path class="st0" d="M-132.2-235.3L-132.2-235.3l-21.8,10.9l0,0l-24.4,13.2l5.6,2.3l24.1-12.7l41.9,23.4l22.6-11.2l-47.5-26
		L-132.2-235.3z M-106.9-200.2l-41.9-23.4l-24.2,12.8l-1.5-0.6l23.2-12.5l19.4-9.6l43.8,24L-106.9-200.2z"/>
</g>
<path class="st1" d="M419.1-108.4L419.1-108.4L419.1-108.4L419.1-108.4c0-0.2,0-0.3-0.1-0.4l0,0c-0.1-0.1-0.2-0.2-0.3-0.3l-0.1,0
	h-0.5l0.1-0.1l-43.3-20.5l-0.5-0.2l-0.5,0.2l-43.3,20.5l0.1,0.1h-0.4h-0.1l-0.1,0l0,0c-0.1,0.1-0.2,0.2-0.3,0.3v0
	c-0.1,0.1-0.1,0.3-0.1,0.4v0l0,0l0,0l0,0v5.9c0,0.2,0.1,0.3,0.1,0.5l0,0c0.1,0.1,0.2,0.2,0.4,0.3l0,0c0.1,0,0.2,0.1,0.3,0.1h1v5.5
	c0,0.2,0.1,0.3,0.1,0.5c0.1,0.1,0.2,0.2,0.4,0.3c0.1,0,0.2,0.1,0.3,0.1h1.4v20.8h-1.4c-0.2,0-0.3,0.1-0.5,0.1
	c-0.1,0.1-0.2,0.2-0.3,0.4c0,0.1-0.1,0.2-0.1,0.3v11.4h-1c-0.2,0-0.4,0.1-0.6,0.3c-0.2,0.2-0.3,0.4-0.3,0.6v6c0,0.2,0.1,0.3,0.1,0.5
	l0,0c0.1,0.1,0.2,0.2,0.4,0.3c0.1,0,0.2,0.1,0.3,0.1h87.6c0.2,0,0.3-0.1,0.5-0.1c0.1-0.1,0.2-0.2,0.3-0.4c0-0.1,0.1-0.2,0.1-0.3v-6
	c0-0.2-0.1-0.3-0.1-0.5c-0.1-0.1-0.2-0.2-0.4-0.3c-0.1,0-0.2-0.1-0.3-0.1h-1v-11.4c0-0.2-0.1-0.3-0.1-0.5l0,0
	c-0.1-0.1-0.2-0.2-0.4-0.3c-0.1,0-0.2-0.1-0.3-0.1H415v-20.8h1.4c0.2,0,0.3-0.1,0.5-0.1c0.1-0.1,0.2-0.2,0.3-0.4l0,0
	c0-0.1,0.1-0.2,0.1-0.3v-5.5h1c0.2,0,0.3-0.1,0.5-0.1c0.1-0.1,0.2-0.2,0.3-0.4v0c0-0.1,0.1-0.2,0.1-0.3L419.1-108.4L419.1-108.4z
	 M374.3-128L374.3-128l40,18.9h-79.7L374.3-128z M333.7-96.9h-0.2v-4.6h9.8v4.6H333.7z M345-96.1v-5.5h2.2v0h17.5v0h3.2v5.5
	c0,0.2,0.1,0.3,0.1,0.5l0,0c0.1,0.1,0.2,0.2,0.4,0.3c0.1,0,0.2,0.1,0.3,0.1h1.4v20.8h-1.4c-0.2,0-0.3,0.1-0.5,0.1
	c-0.1,0.1-0.2,0.2-0.3,0.4c0,0.1-0.1,0.2-0.1,0.3v5.5h-3.4h-17.1H345v-5.5c0-0.2-0.1-0.3-0.1-0.5c-0.1-0.1-0.2-0.2-0.4-0.3
	c-0.1,0-0.2-0.1-0.3-0.1h-1.4v-20.8h1.4c0.2,0,0.3-0.1,0.5-0.1c0.1-0.1,0.2-0.2,0.3-0.4l0,0C345-95.8,345-95.9,345-96.1z
	 M381.1-95.7c0-0.1,0.1-0.2,0.1-0.3v-5.5h2.7v0h17.5v0h2.7v5.5c0,0.2,0.1,0.3,0.1,0.5c0.1,0.1,0.2,0.2,0.4,0.3
	c0.1,0,0.2,0.1,0.3,0.1h1.4v20.8h-1.4c-0.2,0-0.3,0.1-0.5,0.1c-0.1,0.1-0.2,0.2-0.3,0.4c0,0.1-0.1,0.2-0.1,0.3v5.5h-2.9H384h-2.9
	v-5.5c0-0.2-0.1-0.3-0.1-0.5v0c-0.1-0.1-0.2-0.2-0.4-0.3c-0.1,0-0.2-0.1-0.3-0.1h-1.4v-20.8h1.4c0.2,0,0.3-0.1,0.5-0.1
	C380.9-95.4,381-95.6,381.1-95.7L381.1-95.7z M379.4-72.7v4.6h-9.8v-4.4v-0.2H379.4z M371.8-74.4v-20.8h5.1h0.2v20.8H371.8z
	 M379.4-96.9h-9.6h-0.2v-4.6h9.8V-96.9z M341-95.2v20.8h-5.4v-20.8h5.1H341z M333.4-72.4v-0.2h9.8v4.6h-5.4v0h-4.4V-72.4z
	 M417.2-60.4h0.2v4.3h-85.8v-4.3h37c0.2,0,0.3-0.1,0.5-0.1c0.1-0.1,0.2-0.2,0.3-0.4c0-0.1,0.1-0.2,0.1-0.3c0-0.2-0.1-0.3-0.1-0.5
	c-0.1-0.1-0.2-0.2-0.4-0.3c-0.1,0-0.2-0.1-0.3-0.1h-35.1v-4.3h82.1v4.3h-35.1c-0.2,0-0.3,0.1-0.5,0.1c-0.1,0.1-0.2,0.2-0.3,0.4
	c0,0.1-0.1,0.2-0.1,0.3c0,0.2,0.1,0.3,0.1,0.5l0,0c0.1,0.1,0.2,0.2,0.4,0.3c0.1,0,0.2,0.1,0.3,0.1H417.2z M415.3-72.7h0.2v4.6h-8.9
	v0h-1v-4.6H415.3z M407.9-74.4v-20.8h5.4v20.8h-5.1H407.9z M415.5-96.9h-9.6h-0.2v-4.6h9.8V-96.9z M417.4-103.3h-85.6h-0.2v-4.3
	h85.8V-103.3z"/>
<path class="st1" d="M165.8-91.2l-1.8-0.6l1.6-1.1c1.7-1.2,3.1-2.7,4-4.5c1-1.8,1.5-3.9,1.5-6.1c0-2.7-0.8-5.2-2.2-7.3
	c-1.4-2.1-3.4-3.7-5.7-4.7c-1.6-0.7-3.3-1-5.1-1c-2.7,0-5.2,0.8-7.3,2.2c-2.1,1.4-3.7,3.4-4.7,5.7c-0.7,1.6-1,3.3-1,5.1
	c0,2.2,0.5,4.3,1.5,6.1c1,1.8,2.3,3.4,4,4.5l1.6,1.1l-1.8,0.6c-3,1-5.6,2.6-7.9,4.6l-0.6,0.6l-0.6-0.6c-3.2-2.7-6.9-4.8-11-6
	l-2.1-0.6l1.9-1.1c2.4-1.5,4.4-3.5,5.8-6c1.4-2.5,2.2-5.3,2.2-8.3c0-3.5-1.1-6.7-2.9-9.3c-1.8-2.7-4.4-4.8-7.3-6.1
	c-2-0.8-4.2-1.3-6.5-1.3c-3.5,0-6.7,1.1-9.3,2.9c-2.7,1.8-4.8,4.4-6.1,7.4c-0.8,2-1.3,4.2-1.3,6.5c0,3,0.8,5.9,2.2,8.3
	c1.4,2.5,3.4,4.5,5.9,6l1.9,1.1l-2.1,0.6c-4,1.2-7.7,3.3-10.9,5.9l-0.6,0.5l-0.6-0.6c-2.3-2-4.9-3.6-7.8-4.6l-1.8-0.6l1.6-1.1
	c1.7-1.2,3.1-2.7,4-4.5c1-1.8,1.5-3.9,1.5-6.1c0-2.7-0.8-5.2-2.2-7.3c-1.4-2.1-3.4-3.7-5.7-4.7c-1.6-0.7-3.3-1-5.1-1
	c-2.7,0-5.2,0.8-7.3,2.2c-2.1,1.4-3.7,3.4-4.7,5.7c-0.7,1.6-1,3.3-1,5.1c0,2.2,0.5,4.3,1.5,6.1c1,1.8,2.3,3.4,4,4.5l1.6,1.1
	l-1.8,0.6c-4.6,1.6-8.6,4.6-11.4,8.4c-2.8,3.9-4.5,8.6-4.5,13.8v0.7h29.8L91-67.2c-0.2,1.3-0.3,2.6-0.3,4v1.6c0,2.5,0.7,4.8,2,6.7
	c1.3,1.9,3.1,3.4,5.2,4.3c1.4,0.6,3,0.9,4.6,0.9h37.5c2.5,0,4.8-0.7,6.7-2c1.9-1.3,3.4-3.1,4.3-5.2c0.6-1.4,0.9-3,0.9-4.6v-1.6
	c0-1.3-0.1-2.7-0.3-4l-0.1-1.1h30V-69c0-5.2-1.7-9.9-4.5-13.8C174.3-86.6,170.4-89.6,165.8-91.2z M151.8-94.5
	c-1.7-1.2-3.1-2.9-3.9-4.8c-0.5-1.3-0.8-2.8-0.8-4.3c0-2.3,0.7-4.4,1.9-6.2c1.2-1.8,2.9-3.2,4.9-4c1.3-0.6,2.8-0.9,4.3-0.9
	c2.3,0,4.4,0.7,6.2,1.9c1.8,1.2,3.2,2.9,4,4.9c0.6,1.3,0.9,2.8,0.9,4.3c0,2.3-0.7,4.4-1.9,6.1c-1.2,1.7-2.8,3.1-4.8,4
	c-1.3,0.6-2.7,0.9-4.2,0.9l0,0h0c-0.1,0-0.1,0-0.2,0c-0.1,0-0.1,0-0.2,0h0l0,0C155.6-92.6,153.5-93.3,151.8-94.5z M112.7-96.6
	c-2.2-1.6-4-3.8-5-6.4c-0.7-1.7-1.1-3.6-1.1-5.6c0-3.1,0.9-5.9,2.5-8.3c1.6-2.4,3.8-4.2,6.5-5.4c1.8-0.7,3.7-1.2,5.7-1.2
	c3.1,0,5.9,0.9,8.3,2.5c2.4,1.6,4.2,3.8,5.4,6.5c0.7,1.8,1.2,3.7,1.2,5.7c0,2.9-0.9,5.7-2.4,8c-1.5,2.3-3.6,4.2-6.1,5.4
	c-1.7,0.8-3.5,1.3-5.4,1.4l0,0h0c-0.3,0-0.5,0-0.8,0c-0.3,0-0.5,0-0.8,0h0l0,0C117.6-94,114.9-95,112.7-96.6z M78.5-94.5
	c-1.7-1.2-3.1-2.9-3.9-4.8c-0.5-1.3-0.9-2.8-0.9-4.3c0-2.3,0.7-4.4,1.9-6.2c1.2-1.8,2.9-3.2,4.9-4c1.3-0.6,2.8-0.9,4.3-0.9
	c2.3,0,4.4,0.7,6.2,1.9c1.8,1.2,3.2,2.9,4,4.9c0.6,1.3,0.9,2.8,0.9,4.3c0,2.3-0.7,4.4-1.9,6.1c-1.2,1.7-2.8,3.1-4.8,4
	c-1.3,0.6-2.7,0.9-4.2,0.9l0,0h0c-0.1,0-0.1,0-0.2,0c-0.1,0-0.1,0-0.2,0h0l0,0C82.4-92.6,80.3-93.3,78.5-94.5z M91.5-70.2H63.2
	l0.1-1.1c0.6-5.4,3.1-10.2,6.9-13.7c3.8-3.5,8.9-5.6,14.4-5.6l0,0h0c0,0,0.1,0,0.1,0c0,0,0.1,0,0.1,0h0l0,0c2.6,0,5.2,0.5,7.5,1.4
	c2.3,0.9,4.5,2.2,6.3,3.7l0.8,0.7l-0.7,0.7c-3.4,3.7-5.9,8.2-7.2,13.1L91.5-70.2z M150.1-61.6c0,2.1-0.6,4-1.7,5.6
	c-1.1,1.6-2.6,2.9-4.4,3.6c-1.2,0.5-2.5,0.8-3.9,0.8h-37.5c-2.1,0-4-0.6-5.6-1.7c-1.6-1.1-2.9-2.6-3.6-4.4c-0.5-1.2-0.8-2.5-0.8-3.9
	v-1.6c0-5.8,1.7-11.3,4.7-15.8c3-4.5,7.2-8.2,12.2-10.4c3.3-1.5,7-2.4,10.9-2.5l0.1,0l0.1,0c0.2,0,0.5,0,0.7,0c0.3,0,0.5,0,0.7,0
	l0.1,0l0.1,0c5.8,0.2,11.2,2.1,15.6,5.2c4.4,3.1,8,7.5,10.1,12.5c1.4,3.4,2.2,7.1,2.2,11V-61.6z M179.7-70.2H152h-0.8l-0.2-0.7
	c-1.3-4.9-3.7-9.4-7.1-13l-0.7-0.7l0.8-0.7c3.7-3.2,8.6-5.2,13.9-5.2l0,0h0c0,0,0.1,0,0.1,0c0,0,0.1,0,0.1,0h0l0,0
	c5.5,0,10.6,2.2,14.4,5.6c3.8,3.5,6.4,8.3,6.9,13.7L179.7-70.2z"/>
<g>
	<g>
		<g>
			<g>
				<path class="st1" d="M71.3,2.1l-0.1,0.1l-0.3,0.1L50.6,12.5L1,39.1l5.5,3.2l48.3-25.9L120.6,52L143,41L71.3,2.1z M54.8,14.3
					l-0.1,0.1L6.5,40.3l-2-1.1L51.4,14l19.8-10l68,36.8L120.6,50L54.8,14.3z"/>
			</g>
		</g>
		<g>
			<g>
				<path class="st1" d="M47.8,66.1l0.6,0.3l1,0.5l23.2,11L94.3,67L70.9,54.2L47.8,66.1z M72.6,76L51.7,66l19.2-9.9l19.7,10.8
					L72.6,76z"/>
			</g>
		</g>
		<g>
			<g>
				<path class="st1" d="M70.8,28.1L70.8,28.1L49,39l0,0L24.6,52.2l5.6,2.3l24.1-12.7l41.9,23.4l22.6-11.2l-47.5-26L70.8,28.1z
					 M96.1,63.2L54.2,39.8L30,52.6L28.5,52l23.2-12.5l19.4-9.6l43.8,24L96.1,63.2z"/>
			</g>
		</g>
	</g>
</g>
</svg>
